<svg width="211" height="60" viewBox="0 0 211 60" fill="none" xmlns="http://www.w3.org/2000/svg">
<path d="M66.28 44.4C63.4 44.4 60.96 43.96 58.96 43.08C56.96 42.2 55.4267 40.7867 54.36 38.84C53.32 36.8933 52.8 34.3333 52.8 31.16C52.8 27.9333 53.32 25.3467 54.36 23.4C55.4267 21.4533 56.96 20.04 58.96 19.16C60.96 18.28 63.4 17.84 66.28 17.84C69.16 17.84 71.6 18.28 73.6 19.16C75.6 20.04 77.12 21.4533 78.16 23.4C79.2267 25.3467 79.76 27.9333 79.76 31.16C79.76 34.3333 79.2267 36.8933 78.16 38.84C77.12 40.7867 75.6 42.2 73.6 43.08C71.6 43.96 69.16 44.4 66.28 44.4ZM66.28 37.12C67.9333 37.12 69.12 36.6533 69.84 35.72C70.5867 34.7867 70.96 33.2667 70.96 31.16C70.96 28.9467 70.5867 27.4 69.84 26.52C69.12 25.6133 67.9333 25.16 66.28 25.16C64.6 25.16 63.3867 25.6133 62.64 26.52C61.92 27.4 61.56 28.9467 61.56 31.16C61.56 33.2667 61.92 34.7867 62.64 35.72C63.3867 36.6533 64.6 37.12 66.28 37.12ZM95.5547 44.4C94.3547 44.4 93.3147 44.2533 92.4347 43.96C91.5547 43.64 90.7414 43.2 89.9947 42.64L89.5947 44H82.1547V17.04H90.7547V25.56C91.3147 25.2667 92.008 25.04 92.8347 24.88C93.6614 24.72 94.4614 24.64 95.2347 24.64C98.1147 24.64 100.368 25.3867 101.995 26.88C103.621 28.3733 104.435 30.8667 104.435 34.36C104.435 37.7467 103.621 40.2667 101.995 41.92C100.395 43.5733 98.248 44.4 95.5547 44.4ZM93.0747 38.24C93.928 38.24 94.568 37.96 94.9947 37.4C95.448 36.84 95.6747 35.8667 95.6747 34.48C95.6747 33.0933 95.448 32.1467 94.9947 31.64C94.568 31.1067 93.928 30.84 93.0747 30.84C92.1414 30.84 91.368 31.1067 90.7547 31.64V37.36C91.0747 37.6267 91.4214 37.84 91.7947 38C92.168 38.16 92.5947 38.24 93.0747 38.24ZM114.407 44.4C112.7 44.4 111.087 44.2667 109.567 44C108.047 43.76 106.874 43.4667 106.047 43.12V37.36C106.687 37.68 107.407 37.96 108.207 38.2C109.034 38.4133 109.86 38.5733 110.687 38.68C111.514 38.7867 112.22 38.84 112.807 38.84C113.58 38.84 114.194 38.8267 114.647 38.8C115.1 38.7467 115.327 38.56 115.327 38.24C115.327 37.9733 115.114 37.76 114.687 37.6C114.287 37.44 113.754 37.28 113.087 37.12C112.42 36.9333 111.687 36.7067 110.887 36.44C109.154 35.8 107.874 35.08 107.047 34.28C106.247 33.4533 105.847 32.2667 105.847 30.72C105.847 28.7467 106.634 27.24 108.207 26.2C109.807 25.16 112.274 24.64 115.607 24.64C116.434 24.64 117.314 24.6933 118.247 24.8C119.18 24.88 120.06 24.9867 120.887 25.12C121.74 25.2533 122.42 25.4133 122.927 25.6V31.28C122.1 30.9067 121.207 30.64 120.247 30.48C119.287 30.2933 118.42 30.2 117.647 30.2C116.954 30.2 116.274 30.2267 115.607 30.28C114.94 30.3333 114.607 30.52 114.607 30.84C114.607 31.1867 114.994 31.44 115.767 31.6C116.567 31.76 117.54 32.0267 118.687 32.4C120.1 32.8 121.194 33.2533 121.967 33.76C122.767 34.2667 123.327 34.88 123.647 35.6C123.967 36.32 124.127 37.2 124.127 38.24C124.127 40.16 123.3 41.6667 121.647 42.76C120.02 43.8533 117.607 44.4 114.407 44.4ZM136.664 44.4C134.45 44.4 132.464 44.04 130.704 43.32C128.97 42.5733 127.61 41.4667 126.624 40C125.637 38.5333 125.144 36.7333 125.144 34.6C125.144 31.5867 126.01 29.1733 127.744 27.36C129.504 25.5467 132.13 24.64 135.624 24.64C138.797 24.64 141.304 25.44 143.144 27.04C144.984 28.6133 145.904 30.8267 145.904 33.68V36.96H133.024C133.717 38.4267 135.664 39.16 138.864 39.16C140.037 39.16 141.17 39.0667 142.264 38.88C143.357 38.6667 144.237 38.4267 144.904 38.16V43.04C143.01 43.9467 140.264 44.4 136.664 44.4ZM133.024 32.48H138.544V31.96C138.544 31.4 138.344 30.92 137.944 30.52C137.57 30.12 136.89 29.92 135.904 29.92C134.837 29.92 134.09 30.1467 133.664 30.6C133.237 31.0533 133.024 31.68 133.024 32.48ZM148.288 44V25.04H156.648L156.848 26.36C157.568 25.9333 158.514 25.5467 159.688 25.2C160.861 24.8533 162.061 24.6667 163.288 24.64V31C162.621 31.0267 161.874 31.0933 161.048 31.2C160.248 31.3067 159.474 31.44 158.728 31.6C158.008 31.7333 157.394 31.9067 156.888 32.12V44H148.288ZM170.553 44L163.073 25.04H172.033L175.033 34.96L178.073 25.04H187.033L179.553 44H170.553ZM197.913 44.4C194.019 44.4 191.126 43.5733 189.233 41.92C187.366 40.24 186.433 37.7733 186.433 34.52C186.433 31.2667 187.379 28.8133 189.273 27.16C191.166 25.48 194.046 24.64 197.913 24.64C201.806 24.64 204.699 25.48 206.593 27.16C208.513 28.8133 209.473 31.2667 209.473 34.52C209.473 37.7733 208.526 40.24 206.633 41.92C204.739 43.5733 201.833 44.4 197.913 44.4ZM197.913 38.2C198.873 38.2 199.579 37.92 200.033 37.36C200.486 36.8 200.713 35.8533 200.713 34.52C200.713 33.1867 200.486 32.24 200.033 31.68C199.579 31.12 198.873 30.84 197.913 30.84C196.979 30.84 196.286 31.12 195.833 31.68C195.406 32.24 195.193 33.1867 195.193 34.52C195.193 35.8533 195.406 36.8 195.833 37.36C196.286 37.92 196.979 38.2 197.913 38.2Z" fill="black"/>
<rect y="8" width="44" height="44" rx="11" fill="black"/>
<path d="M22.9423 23.3917C22.6923 23.1409 22.3534 23 22 23C21.6466 23 21.3077 23.1409 21.0577 23.3917L10.39 34.107C10.1403 34.3581 10 34.6985 10 35.0535C10 35.4084 10.1403 35.7489 10.39 36H33.61C33.8597 35.7489 34 35.4084 34 35.0535C34 34.6985 33.8597 34.3581 33.61 34.107L22.9423 23.3917Z" fill="white"/>
</svg>
